<?xml version="1.0" encoding="utf-8"?>
<!-- Generator: Adobe Illustrator 19.2.0, SVG Export Plug-In . SVG Version: 6.00 Build 0)  -->
<svg version="1.1" id="bench" xmlns="http://www.w3.org/2000/svg" xmlns:xlink="http://www.w3.org/1999/xlink" x="0px" y="0px"
	 viewBox="0 0 56.31 50.4072" enable-background="new 0 0 56.31 50.4072" xml:space="preserve">
<g>
	<circle fill="#535353" cx="50.021" cy="6" r="6"/>
	<circle fill="#D8D8D8" cx="50.021" cy="6" r="4"/>
	<path fill="#535353" d="M41.3139,13.707C41.5093,13.9023,41.7651,14,42.021,14s0.5117-0.0977,0.707-0.293l2-2
		c0.3906-0.3906,0.3906-1.0234,0-1.4141s-1.0234-0.3906-1.4141,0l-2,2C40.9233,12.6836,40.9233,13.3164,41.3139,13.707z"/>
	<path fill="#535353" d="M55.5854,48.4463c-1.7593-0.5046-3.6355-0.9504-5.584-1.3494C50.0048,47.0634,50.021,47.0344,50.021,47v-4
		h1c0.5527,0,1-0.4473,1-1v-4c0-0.5527-0.4473-1-1-1h-1v-4v-4v-2c0-0.5527-0.4473-1-1-1s-1,0.4473-1,1v1h-39v-1
		c0-0.5527-0.4473-1-1-1s-1,0.4473-1,1v2v4v4h-1c-0.5527,0-1,0.4473-1,1v4c0,0.5527,0.4473,1,1,1h1v3.8869
		c-2.1913,0.4252-4.296,0.9183-6.292,1.4813c-0.5312,0.1504-0.8408,0.7031-0.6914,1.2344c0.1504,0.5312,0.7031,0.8398,1.2344,0.6914
		C8.8003,48.1699,18.3003,47,28.021,47c9.8447,0,19.4385,1.1963,27.0137,3.3682c0.0918,0.0264,0.1846,0.0391,0.2754,0.0391
		c0.4355,0,0.835-0.2852,0.9609-0.7246C56.4233,49.1523,56.1167,48.5986,55.5854,48.4463z M48.021,46.7209
		C41.8716,45.6072,35.0124,45,28.021,45c-6.7096,0-13.1352,0.5314-19,1.5336V43h39V46.7209z M48.021,37h-39v-3h39V37z"/>
	<path fill="#535353" d="M40.021,7h2c0.5527,0,1-0.4473,1-1s-0.4473-1-1-1h-2c-0.5527,0-1,0.4473-1,1S39.4682,7,40.021,7z"/>
	<path fill="#535353" d="M49.021,13.9648v2c0,0.5527,0.4473,1,1,1s1-0.4473,1-1v-2c0-0.5527-0.4473-1-1-1
		S49.021,13.4121,49.021,13.9648z"/>
	<rect x="9.021" y="30" fill="#D8D8D8" width="39" height="2"/>
	<rect x="7.021" y="39" fill="#D8D8D8" width="43" height="2"/>
</g>
</svg>
