<?xml version="1.0" encoding="utf-8"?>
<!-- Generator: Adobe Illustrator 19.2.0, SVG Export Plug-In . SVG Version: 6.00 Build 0)  -->
<svg version="1.1" id="bike" xmlns="http://www.w3.org/2000/svg" xmlns:xlink="http://www.w3.org/1999/xlink" x="0px" y="0px"
	 viewBox="0 0 57 31.6234" enable-background="new 0 0 57 31.6234" xml:space="preserve">
<path fill="#535353" d="M46,9.6234c-2.6387,0-5.0621,0.9353-6.9595,2.49l-3.2582-3.2581c0,0-0.0006-0.0002-0.0009-0.0005
	c-1.5587-1.5598-1.5584-4.0969,0.0009-5.6562c1.5596-1.5586,4.0977-1.5586,5.6572,0c0.3906,0.3906,1.0234,0.3906,1.4141,0
	s0.3906-1.0239,0-1.4141c-2.3398-2.3389-6.1465-2.3389-8.4854,0c-1.5889,1.5889-2.0716,3.8484-1.5022,5.8716H20.0117
	c-0.5522,0-1,0.4478-1,1s0.4478,1,1,1h11.9648l-6.4248,10.0391H21.953c-0.3125-3.7146-2.4749-6.9062-5.5642-8.6511l1.5658-4.7097
	c0.1182-0.3545,0.0288-0.7446-0.2314-1.0127l-4.8794-5.0195c-0.3853-0.3955-1.0181-0.4033-1.4146-0.02
	c-0.396,0.3853-0.4048,1.0181-0.02,1.4146l4.4561,4.5835l-1.3111,3.9438C13.4374,9.8412,12.2449,9.6234,11,9.6234
	c-6.0654,0-11,4.9346-11,11s4.9346,11,11,11c5.7037,0,10.405-4.3643,10.9457-9.9282h4.1534c0.3408,0,0.6587-0.1738,0.8423-0.4609
	l7.197-11.2458c0.081,0.0916,0.1423,0.1941,0.2298,0.2815c0.0004,0.0005,0.001,0.0005,0.0015,0.001l3.2474,3.2473
	C35.9883,15.4369,35,17.9154,35,20.6234c0,6.0654,4.9346,11,11,11s11-4.9346,11-11S52.0654,9.6234,46,9.6234z"/>
<path fill="#D8D8D8" d="M19.952,19.6952h-6.4393l2.2296-6.7065C18.0451,14.4242,19.6605,16.8632,19.952,19.6952z"/>
<path fill="#D8D8D8" d="M11,29.6234c-4.9624,0-9-4.0376-9-9s4.0376-9,9-9c1.0244,0,2.0054,0.1804,2.9236,0.4971l-2.7458,8.2593
	c-0.1016,0.3047-0.0503,0.6396,0.1377,0.9004s0.4897,0.415,0.811,0.415h7.8036C19.3976,26.1532,15.5991,29.6234,11,29.6234z"/>
<path fill="#D8D8D8" d="M46,29.6234c-4.9624,0-9-4.0376-9-9c0-2.1565,0.7639-4.1372,2.0334-5.689l6.6707,6.6704
	c0.1953,0.1953,0.4512,0.293,0.707,0.293s0.5117-0.0977,0.707-0.293c0.3906-0.3906,0.3906-1.0234,0-1.4141l-6.651-6.6506
	c1.5282-1.1965,3.4462-1.9167,5.5328-1.9167c4.9624,0,9,4.0376,9,9S50.9624,29.6234,46,29.6234z"/>
</svg>
