<?xml version="1.0" encoding="utf-8"?>
<!-- Generator: Adobe Illustrator 19.2.0, SVG Export Plug-In . SVG Version: 6.00 Build 0)  -->
<svg version="1.1" id="bonsai" xmlns="http://www.w3.org/2000/svg" xmlns:xlink="http://www.w3.org/1999/xlink" x="0px" y="0px"
	 viewBox="0 0 57.7643 44.506" enable-background="new 0 0 57.7643 44.506" xml:space="preserve">
<g>
	<path fill="#535353" d="M57.7212,10.4074c-0.1846-1.5029-0.9429-2.8438-2.1353-3.7754c-0.311-0.2432-0.6436-0.4512-0.9937-0.623
		c0.106-1.8379-0.6958-3.6582-2.167-4.8066c-1.1919-0.9316-2.6743-1.3438-4.1792-1.1592c-1.1689,0.1436-2.2397,0.6338-3.0952,1.4053
		c-0.064-0.0547-0.1289-0.1084-0.1953-0.1602c-2.4614-1.9229-6.0308-1.4863-7.9541,0.9766
		c-1.9238,2.4619-1.4858,6.0303,0.9766,7.9541c0.8105,0.6328,1.7822,1.0332,2.7959,1.1592
		c0.1161,0.3013,0.2662,0.5867,0.4313,0.8632c-3.4236,0.7009-6.7043,3.2543-8.1641,4.5232
		c-1.1971-1.9105-2.6722-3.0975-4.3937-3.5153c-0.5018-0.1212-0.9765-0.1532-1.4275-0.1481c0.4958-0.9259,0.78-1.9779,0.78-3.095
		c0-3.6758-3.0405-6.667-6.7778-6.667c-0.5264,0-1.0459,0.0586-1.5522,0.1758C18.4258,1.6398,16.3228,0.506,14,0.506
		c-3.3984,0-6.2212,2.4736-6.7046,5.6865C7.1235,6.1798,6.9512,6.173,6.7778,6.173C3.0405,6.173,0,9.1632,0,12.839
		s3.0405,6.667,6.7778,6.667c1.2788,0,2.5361-0.3604,3.6108-1.0254c1.0752,0.665,2.3325,1.0254,3.6113,1.0254
		c2.3228,0,4.4258-1.1338,5.6699-3.0088c0.5063,0.1172,1.0259,0.1758,1.5522,0.1758c1.2466,0,2.4117-0.3386,3.4163-0.9185
		c0.1861,0.0034,0.3741-0.0266,0.5442-0.1313c0.0137-0.0088,1.3813-0.8242,2.9937-0.4297c1.2456,0.3018,2.3511,1.2471,3.2856,2.8096
		c2.7646,4.624-2.7812,9.0469-3.019,9.2334c-0.097,0.0759-0.1697,0.1701-0.2303,0.2695H12c-0.3081,0-0.5986,0.1416-0.7881,0.3848
		c-0.1895,0.2422-0.2568,0.5586-0.1821,0.8574l3,12C14.1411,41.1935,14.541,41.506,15,41.506h30
		c0.459,0,0.8589-0.3125,0.9702-0.7578l3-12c0.0747-0.2988,0.0073-0.6152-0.1821-0.8574c-0.1895-0.2432-0.48-0.3848-0.7881-0.3848
		H31.0923c1.9473-2.0699,3.8699-5.3818,2.8273-8.8445c1.0855-0.9896,5.3067-4.6086,8.9789-4.6086
		c0.0082,0,0.0149-0.0045,0.023-0.0046c1.4409,0.9659,3.2063,1.2225,4.8427,0.7039c0.251,0.2969,0.5332,0.5684,0.8438,0.8105
		c1.0063,0.7861,2.2202,1.2021,3.4775,1.2021c0.2324,0,0.4673-0.0146,0.7017-0.043c1.5024-0.1846,2.8433-0.9424,3.7749-2.1357
		C57.4941,13.3937,57.9058,11.9093,57.7212,10.4074z"/>
	<path fill="#D8D8D8" d="M19.5425,14.3761c-0.4766-0.1738-1.0122,0.0391-1.2397,0.4951C17.5088,16.4718,15.8198,17.506,14,17.506
		c-1.1025,0-2.1372-0.3555-2.9932-1.0293c-0.1812-0.1426-0.3999-0.2139-0.6182-0.2139c-0.2188,0-0.437,0.0713-0.6187,0.2139
		c-0.855,0.6738-1.8896,1.0293-2.9922,1.0293C4.1436,17.506,2,15.4123,2,12.839s2.1436-4.666,4.7778-4.666
		c0.4097,0,0.814,0.0498,1.2017,0.1484C8.2832,8.3986,8.6069,8.3283,8.8521,8.131c0.2446-0.1973,0.3828-0.498,0.3726-0.8125
		L9.2222,7.173c0-2.5732,2.1436-4.667,4.7778-4.667c1.8198,0,3.5088,1.0342,4.3027,2.6348c0.2266,0.457,0.7627,0.668,1.2397,0.4951
		c0.5371-0.1973,1.1025-0.2969,1.6797-0.2969C23.8564,5.339,26,7.4328,26,10.006s-2.1436,4.667-4.7778,4.667
		C20.645,14.673,20.0796,14.5734,19.5425,14.3761z"/>
	<polygon fill="#D8D8D8" points="44.2192,39.506 15.7808,39.506 13.2808,29.506 46.7192,29.506 	"/>
	<path fill="#D8D8D8" d="M54.9858,13.3556c-0.6025,0.7715-1.4702,1.2617-2.4424,1.3809c-0.9717,0.1182-1.9326-0.1475-2.7046-0.75
		c-0.3486-0.2725-0.6411-0.5996-0.8691-0.9717c-0.187-0.3066-0.5151-0.4785-0.8535-0.4785c-0.1479,0-0.2979,0.0332-0.4385,0.1016
		c-1.2729,0.623-2.7559,0.4658-3.8721-0.4043c-0.6641-0.5186-1.1172-1.2246-1.3105-2.043
		c-0.1074-0.4561-0.5312-0.7588-0.9854-0.7705c-0.854-0.0127-1.6367-0.2578-2.3003-0.7773
		c-0.772-0.6025-1.2627-1.4707-1.3823-2.4424c-0.1191-0.9727,0.1475-1.9326,0.7505-2.7051c1.2446-1.5928,3.5542-1.875,5.147-0.6309
		c0.2461,0.1924,0.4653,0.4131,0.6514,0.6562c0.1914,0.25,0.4932,0.4229,0.8047,0.3916c0.3154-0.0039,0.6104-0.1553,0.7964-0.4092
		l0.0703-0.0938c0.6025-0.7715,1.4702-1.2617,2.4424-1.3809c0.9663-0.125,1.9316,0.1465,2.7046,0.75
		c1.1152,0.8711,1.624,2.2725,1.3281,3.6582c-0.1074,0.5049,0.186,1.0078,0.6777,1.1631c0.4175,0.1309,0.8057,0.3359,1.1538,0.6084
		C55.9473,9.4533,56.231,11.7619,54.9858,13.3556z"/>
	<path fill="#535353" d="M47,42.506H13c-0.5522,0-1,0.4473-1,1s0.4478,1,1,1h34c0.5522,0,1-0.4473,1-1S47.5522,42.506,47,42.506z"/>
</g>
</svg>
