<?xml version="1.0" standalone="no"?>
<!DOCTYPE svg PUBLIC "-//W3C//DTD SVG 20010904//EN"
 "http://www.w3.org/TR/2001/REC-SVG-20010904/DTD/svg10.dtd">
<svg version="1.0" xmlns="http://www.w3.org/2000/svg"
 width="320.000000pt" height="290.000000pt" viewBox="0 0 320.000000 290.000000"
 preserveAspectRatio="xMidYMid meet">
<metadata>
Created by potrace 1.15, written by Peter Selinger 2001-2017
</metadata>
<g transform="translate(0.000000,290.000000) scale(0.100000,-0.100000)"
fill="#fff" stroke="none">
<path d="M1578 2341 c-63 -21 -137 -61 -158 -86 -8 -9 -42 -30 -78 -45 -74
-34 -105 -61 -133 -112 -18 -35 -23 -38 -63 -38 -68 0 -101 -10 -135 -40 -55
-51 -36 -116 46 -151 58 -25 104 -24 180 2 61 22 62 22 100 3 37 -18 56 -19
248 -14 17 1 68 -2 115 -5 263 -21 469 161 380 335 -26 51 -94 107 -167 138
-81 34 -251 41 -335 13z"/>
<path d="M885 1748 c-3 -11 -36 -850 -47 -1203 l-3 -80 875 0 875 0 3 418 c1
251 -2 417 -7 417 -5 0 -107 -59 -226 -130 -199 -121 -238 -138 -234 -107 1 7
1 63 0 125 l-1 114 -47 -28 c-27 -15 -88 -53 -138 -84 -222 -141 -255 -160
-264 -160 -7 0 -11 47 -11 135 0 74 -2 135 -4 135 -3 0 -42 -23 -88 -51 -285
-177 -392 -239 -398 -232 -5 6 -41 651 -40 726 0 15 -12 17 -120 17 -88 0
-122 -3 -125 -12z m571 -869 c14 -12 21 -150 8 -183 -8 -21 -169 -24 -177 -3
-6 16 -7 166 -1 182 6 15 151 20 170 4z m528 -5 c8 -20 8 -158 0 -178 -5 -13
-23 -16 -89 -16 -57 0 -84 4 -87 13 -11 28 -9 169 3 183 17 21 165 20 173 -2z
m441 -14 c7 -30 5 -131 -3 -162 -4 -15 -16 -18 -78 -18 l-74 0 0 98 c0 54 3
102 7 105 3 4 37 7 74 7 67 0 67 0 74 -30z"/>
<path d="M809 397 c-7 -15 -7 -31 0 -50 l11 -27 869 0 c777 0 871 2 885 16 19
18 20 38 6 65 -10 19 -31 19 -886 19 l-874 0 -11 -23z"/>
</g>
</svg>
