<?xml version="1.0" standalone="no"?>
<!DOCTYPE svg PUBLIC "-//W3C//DTD SVG 20010904//EN"
 "http://www.w3.org/TR/2001/REC-SVG-20010904/DTD/svg10.dtd">
<svg version="1.0" xmlns="http://www.w3.org/2000/svg"
 width="380.000000pt" height="316.000000pt" viewBox="0 0 380.000000 316.000000"
 preserveAspectRatio="xMidYMid meet">
<metadata>
Created by potrace 1.15, written by Peter Selinger 2001-2017
</metadata>
<g transform="translate(0.000000,316.000000) scale(0.100000,-0.100000)"
fill="#fff" stroke="none">
<path d="M1850 2787 c-69 -33 -142 -98 -172 -155 -14 -26 -23 -32 -51 -32 -52
0 -129 -44 -166 -95 -18 -25 -35 -45 -39 -46 -4 -1 -24 -3 -45 -4 -83 -8 -147
-74 -147 -152 0 -86 44 -142 125 -157 37 -7 75 5 125 39 34 23 39 24 96 14 77
-13 127 -1 189 46 l46 35 56 -16 c31 -9 73 -16 95 -16 54 1 140 43 195 96 32
32 57 47 85 51 58 10 114 67 123 126 5 36 3 55 -13 85 -23 44 -56 66 -126 83
-27 7 -63 23 -79 37 -56 47 -132 74 -205 73 -37 0 -78 -6 -92 -12z"/>
<path d="M1080 2020 l-75 -5 -12 -130 c-22 -241 -35 -329 -65 -475 -17 -80
-34 -167 -40 -195 -5 -27 -17 -79 -28 -115 -10 -36 -23 -85 -30 -110 -6 -25
-25 -83 -42 -130 -17 -47 -39 -110 -50 -140 -11 -30 -28 -71 -39 -91 -10 -20
-19 -53 -19 -73 l0 -36 1178 2 1177 3 3 21 c2 12 -6 41 -16 65 -29 66 -59 146
-82 224 -12 39 -27 88 -35 110 -13 38 -55 209 -75 305 -26 123 -48 289 -56
415 -4 55 -11 110 -15 123 l-9 22 -325 0 -325 0 -10 -26 c-6 -14 -10 -60 -10
-102 0 -100 -32 -324 -69 -482 -39 -170 -44 -182 -60 -164 -21 24 -84 297
-116 504 -9 52 -17 102 -20 110 -2 8 -9 91 -15 185 -6 93 -14 173 -18 177 -8
8 -593 15 -702 8z m427 -485 c13 -9 23 -22 23 -29 0 -21 -68 -138 -90 -158
-21 -17 -74 -15 -97 4 -18 15 -83 134 -83 152 0 49 184 72 247 31z m-210 -300
c25 -17 37 -73 23 -106 -23 -55 -69 -124 -85 -127 -19 -4 -89 59 -110 99 -26
49 -39 117 -25 134 17 21 167 21 197 0z m391 -29 c6 -66 -80 -206 -126 -206
-17 0 -60 60 -95 134 -15 31 -17 43 -8 55 6 9 14 24 17 33 8 23 25 26 124 25
l85 -2 3 -39z"/>
</g>
</svg>
