<?xml version="1.0" standalone="no"?>
<!DOCTYPE svg PUBLIC "-//W3C//DTD SVG 20010904//EN"
 "http://www.w3.org/TR/2001/REC-SVG-20010904/DTD/svg10.dtd">
<svg version="1.0" xmlns="http://www.w3.org/2000/svg"
 width="225.000000pt" height="198.000000pt" viewBox="0 0 225.000000 198.000000"
 preserveAspectRatio="xMidYMid meet">
<metadata>
Created by potrace 1.15, written by Peter Selinger 2001-2017
</metadata>
<g transform="translate(0.000000,198.000000) scale(0.100000,-0.100000)"
fill="#fff" stroke="none">
<path d="M1600 1909 c-78 -12 -183 -44 -228 -70 -26 -15 -37 -16 -60 -7 -15 6
-36 14 -47 18 -46 18 -166 32 -221 26 -111 -11 -149 -18 -158 -27 -6 -5 -18
-9 -28 -9 -10 0 -18 -4 -18 -10 0 -5 -6 -10 -12 -10 -7 0 -26 -12 -43 -26 -24
-20 -30 -33 -30 -67 0 -23 4 -52 8 -64 8 -21 5 -23 -22 -23 -48 0 -117 -37
-131 -70 -10 -24 -19 -29 -53 -32 -37 -3 -42 -6 -42 -28 l0 -25 160 -3 c161
-2 186 2 228 37 9 8 17 22 17 32 0 28 17 32 87 19 52 -10 83 -10 152 0 92 13
103 16 169 48 42 21 43 21 86 2 42 -17 44 -21 48 -65 2 -25 1 -48 -1 -51 -2
-2 -26 -4 -51 -4 -57 0 -83 -21 -57 -47 12 -12 36 -16 102 -15 76 0 88 2 101
21 13 19 25 21 101 21 69 0 93 4 123 21 21 12 40 30 43 39 3 13 23 21 78 29
207 33 319 93 319 172 0 52 -80 115 -180 141 -109 29 -333 43 -440 27z"/>
<path d="M216 1352 c-3 -5 -1 -45 5 -88 17 -128 23 -410 9 -489 -20 -121 -54
-244 -82 -302 -6 -11 -9 -26 -6 -33 2 -8 97 -11 348 -11 308 1 345 2 348 17 3
14 -2 33 -28 99 -23 58 -46 171 -61 292 -12 102 -9 187 12 368 6 50 11 104 12
120 l2 30 -277 3 c-152 1 -279 -2 -282 -6z"/>
<path d="M1083 1345 c-3 -9 -1 -35 5 -58 6 -23 16 -108 23 -189 18 -219 -8
-423 -77 -592 -13 -33 -20 -64 -16 -68 14 -14 696 -11 700 2 3 7 -1 23 -7 36
-34 73 -58 164 -81 299 -14 80 -9 365 9 489 5 43 8 83 5 87 -3 5 -129 9 -280
9 -238 0 -275 -2 -281 -15z"/>
<path d="M139 393 c0 -5 -2 -19 -4 -33 -6 -45 7 -101 28 -121 20 -18 47 -19
769 -19 731 0 748 0 768 20 25 25 32 54 28 111 l-3 44 -792 3 c-436 1 -793 -1
-794 -5z"/>
<path d="M154 159 c-14 -15 -16 -24 -7 -37 9 -16 69 -17 793 -17 724 0 784 1
793 17 9 13 7 22 -7 37 -19 21 -25 21 -786 21 -761 0 -767 0 -786 -21z"/>
</g>
</svg>
