<?xml version="1.0" standalone="no"?>
<!DOCTYPE svg PUBLIC "-//W3C//DTD SVG 20010904//EN"
 "http://www.w3.org/TR/2001/REC-SVG-20010904/DTD/svg10.dtd">
<svg version="1.0" xmlns="http://www.w3.org/2000/svg"
 width="258.000000pt" height="242.000000pt" viewBox="0 0 258.000000 242.000000"
 preserveAspectRatio="xMidYMid meet">
<metadata>
Created by potrace 1.15, written by Peter Selinger 2001-2017
</metadata>
<g transform="translate(0.000000,242.000000) scale(0.100000,-0.100000)"
fill="#fff" stroke="none">
<path d="M1320 2347 c-69 -33 -142 -98 -172 -155 -14 -26 -23 -32 -51 -32 -52
0 -129 -44 -166 -95 -18 -25 -35 -45 -39 -46 -4 -1 -24 -3 -45 -4 -83 -8 -147
-74 -147 -152 0 -86 44 -142 125 -157 37 -7 75 5 126 40 33 22 39 23 90 14 70
-14 116 -5 172 30 49 31 57 30 57 -8 0 -37 36 -88 74 -106 47 -22 112 -20 152
5 l34 21 60 -21 c78 -27 123 -26 188 4 30 14 59 25 64 25 6 0 36 -12 66 -27
90 -44 194 -30 285 37 29 22 52 30 81 30 61 0 116 36 145 93 41 82 7 156 -93
202 -28 13 -77 49 -109 79 -70 65 -107 80 -207 80 -60 0 -83 -4 -113 -22 -46
-27 -74 -28 -82 -2 -8 25 -58 54 -119 69 -27 7 -63 23 -79 37 -56 47 -132 74
-205 73 -37 0 -78 -6 -92 -12z"/>
<path d="M550 1580 l-75 -5 -12 -130 c-22 -241 -35 -329 -65 -475 -17 -80 -34
-167 -40 -195 -5 -27 -17 -79 -28 -115 -10 -36 -23 -85 -30 -110 -6 -25 -25
-83 -42 -130 -17 -47 -39 -110 -50 -140 -11 -30 -28 -71 -39 -91 -10 -20 -19
-53 -19 -73 l0 -36 1178 2 1177 3 3 21 c2 12 -6 41 -16 65 -29 66 -59 146 -82
224 -12 39 -27 88 -35 110 -13 38 -55 209 -75 305 -26 123 -48 289 -56 415 -4
55 -11 110 -15 123 l-9 22 -325 0 -325 0 -10 -26 c-6 -14 -10 -60 -10 -102 0
-100 -32 -324 -69 -482 -39 -170 -44 -182 -60 -164 -21 24 -84 297 -116 504
-9 52 -17 102 -20 110 -2 8 -9 91 -15 185 -6 93 -14 173 -18 177 -8 8 -593 15
-702 8z"/>
</g>
</svg>
