<?xml version="1.0" standalone="no"?>
<!DOCTYPE svg PUBLIC "-//W3C//DTD SVG 20010904//EN"
 "http://www.w3.org/TR/2001/REC-SVG-20010904/DTD/svg10.dtd">
<svg version="1.0" xmlns="http://www.w3.org/2000/svg"
 width="337.000000pt" height="301.000000pt" viewBox="0 0 337.000000 301.000000"
 preserveAspectRatio="xMidYMid meet">
<metadata>
Created by potrace 1.15, written by Peter Selinger 2001-2017
</metadata>
<g transform="translate(0.000000,301.000000) scale(0.100000,-0.100000)"
fill="#fff" stroke="none">
<path d="M2010 2749 c-185 -49 -301 -124 -391 -252 -35 -50 -45 -58 -65 -53
-168 43 -362 -36 -462 -187 -23 -35 -29 -38 -56 -32 -198 41 -333 -15 -414
-170 -22 -43 -26 -62 -26 -145 0 -80 3 -103 23 -143 46 -94 169 -167 281 -167
48 0 134 28 172 55 18 13 44 32 57 42 22 16 25 16 70 -9 176 -99 364 -88 520
29 53 40 63 40 105 8 18 -13 64 -39 102 -57 66 -30 75 -32 194 -32 104 -1 136
3 189 22 82 28 138 61 216 127 l62 53 94 4 c136 5 214 51 274 159 27 49 30 62
30 149 0 111 -17 152 -85 214 -51 46 -110 72 -184 81 -53 7 -59 10 -88 53
-120 175 -288 263 -496 261 -48 0 -103 -5 -122 -10z"/>
<path d="M754 1549 c-17 -5 -36 -15 -41 -21 -6 -7 -13 -62 -17 -123 -4 -60
-11 -184 -17 -275 -19 -317 -28 -466 -40 -655 -7 -104 -13 -212 -13 -240 l-1
-50 215 0 215 0 0 85 c0 47 -6 173 -13 280 -18 278 -29 466 -42 695 -16 280
-17 287 -60 302 -41 14 -142 15 -186 2z"/>
</g>
</svg>
