<?xml version="1.0" encoding="utf-8"?>
<!-- Generator: Adobe Illustrator 19.2.0, SVG Export Plug-In . SVG Version: 6.00 Build 0)  -->
<svg version="1.1" id="forest" xmlns="http://www.w3.org/2000/svg" xmlns:xlink="http://www.w3.org/1999/xlink" x="0px" y="0px"
	 viewBox="0 0 58.002 55.8638" enable-background="new 0 0 58.002 55.8638" xml:space="preserve">
<path fill="#535353" d="M57.5862,46.7388c-0.1452-0.1045-2.4905-1.7607-6.6423-3.4595c0.0269-0.0903,0.0563-0.1802,0.0563-0.2793v-4
	h5c0.3096,0,0.6016-0.1436,0.791-0.3887s0.2549-0.564,0.1768-0.8638l-6-23C50.8528,14.3071,50.4553,14,50.0003,14
	s-0.8525,0.3071-0.9678,0.7476l-6,23c-0.0781,0.2998-0.0127,0.6187,0.1768,0.8638S43.6907,39,44.0003,39h5v3.5303
	c-1.7744-0.6362-3.8011-1.2471-6.0625-1.7495c-1.7649-0.3923-3.7598-0.7229-5.9375-0.9417V34h6c0.3096,0,0.6016-0.1431,0.791-0.3882
	c0.1895-0.2446,0.2549-0.563,0.1768-0.8628l-7-27C36.8538,5.3081,36.4563,5,36.0003,5s-0.8535,0.3081-0.9678,0.749l-7,27
	c-0.0781,0.2998-0.0127,0.6182,0.1768,0.8628C28.3987,33.8569,28.6907,34,29.0003,34h6v5.678
	c-6.621-0.4099-14.8019,0.3374-24,3.8066V37h8c0.3096,0,0.6006-0.1431,0.79-0.3872s0.2559-0.5625,0.1787-0.8618l-9-35
	C10.8547,0.3091,10.4563,0,10.0003,0S9.1458,0.3091,9.0315,0.751l-9,35c-0.0771,0.2993-0.0107,0.6177,0.1787,0.8618
	S0.6907,37,1.0003,37h8v7c0,0.0918,0.0291,0.1741,0.0522,0.2583c-1.1479,0.4746-2.3057,0.9775-3.4819,1.5405
	c-0.498,0.2383-0.709,0.8354-0.4707,1.3335c0.2373,0.4976,0.833,0.7085,1.334,0.4702c3.3093-1.5835,6.5052-2.7817,9.5821-3.6899
	c0.0062,0.0042,0.0092,0.011,0.0156,0.0151c3.7793,2.4326,8.1133,6.9355,8.6953,11.0752c0.0703,0.5,0.498,0.8608,0.9893,0.8608
	c0.0459,0,0.0928-0.0029,0.1406-0.0098c0.5469-0.0771,0.9277-0.5825,0.8506-1.1294c-0.6002-4.2656-4.3391-8.6382-8.1806-11.4944
	c1.8441-0.4568,3.6429-0.8142,5.3846-1.0686c0.0569,0.1194,0.1373,0.2297,0.2432,0.3223c2.6377,2.3057,5.9746,3.5757,9.2012,4.8042
	c4.5615,1.7368,8.8711,3.3774,10.8262,7.7222c0.167,0.3701,0.5312,0.5898,0.9131,0.5898c0.1367,0,0.2764-0.0288,0.4092-0.0884
	c0.5039-0.2271,0.7285-0.8188,0.502-1.3228c-2.2949-5.0981-7.1973-6.9648-11.9385-8.77c-2.6095-0.9932-5.2896-2.0203-7.4918-3.5815
	c18.014-1.7202,29.6891,6.415,29.8433,6.5259c0.1768,0.1265,0.3799,0.187,0.582,0.187c0.3105,0,0.6182-0.1445,0.8125-0.4165
	C58.136,47.6851,58.0344,47.0615,57.5862,46.7388z"/>
<polygon fill="#FFFFFF" points="50.0003,18.9614 54.7063,37 45.2942,37 "/>
<polygon fill="#FFFFFF" points="36.0003,9.9849 41.7083,32 30.2922,32 "/>
<polygon fill="#FFFFFF" points="2.2903,35 10.0003,5.0156 17.7102,35 "/>
</svg>
