<?xml version="1.0" standalone="no"?>
<!DOCTYPE svg PUBLIC "-//W3C//DTD SVG 20010904//EN"
 "http://www.w3.org/TR/2001/REC-SVG-20010904/DTD/svg10.dtd">
<svg version="1.0" xmlns="http://www.w3.org/2000/svg"
 width="500.000000pt" height="517.000000pt" viewBox="0 0 500.000000 517.000000"
 preserveAspectRatio="xMidYMid meet">
<metadata>
Created by potrace 1.15, written by Peter Selinger 2001-2017
</metadata>
<g transform="translate(0.000000,517.000000) scale(0.100000,-0.100000)"
fill="#000000" stroke="none">
<path d="M2315 5156 c-323 -63 -570 -297 -645 -609 -25 -101 -26 -248 -4 -355
62 -299 287 -532 593 -614 106 -28 286 -28 395 1 227 60 421 219 521 426 65
134 79 196 79 355 0 111 -4 149 -22 214 -80 278 -300 494 -577 566 -102 27
-248 34 -340 16z"/>
<path d="M2150 3244 c-566 -75 -1034 -249 -1352 -502 -324 -258 -562 -864
-697 -1777 -46 -310 -91 -760 -91 -911 l0 -54 344 0 344 0 6 67 c44 442 128
904 227 1247 76 266 100 323 159 379 39 38 56 48 77 45 46 -5 56 -54 49 -238
-8 -195 -29 -512 -66 -1030 -17 -223 -30 -420 -30 -437 l0 -33 1365 0 1365 0
0 23 c0 12 -18 380 -40 817 -37 757 -38 797 -22 830 9 19 29 41 44 50 25 13
29 13 55 -6 45 -33 88 -115 116 -221 55 -207 140 -723 202 -1233 14 -118 28
-225 31 -237 l4 -23 375 0 c259 0 375 3 375 11 0 6 -92 484 -204 1063 -155
796 -212 1072 -235 1131 -65 169 -222 384 -377 518 -351 304 -815 472 -1446
522 l-78 6 1 -488 c0 -268 4 -477 8 -463 5 14 16 52 26 85 36 127 104 223 172
246 19 6 51 8 74 4 90 -15 259 -161 391 -337 217 -288 323 -589 335 -953 8
-236 -28 -399 -104 -465 -30 -27 -41 -30 -98 -30 -131 0 -443 80 -575 148 -69
36 -125 114 -163 229 -44 133 -59 241 -64 471 l-6 212 -26 7 c-45 12 -195 8
-219 -5 -53 -30 -56 -45 -63 -336 -9 -343 -17 -383 -96 -457 -124 -119 -515
-305 -650 -311 -123 -4 -223 111 -259 300 -18 95 -18 183 1 340 52 424 119
613 316 879 183 248 336 354 468 324 51 -11 83 -39 109 -95 26 -54 58 -171 75
-271 l14 -80 6 105 c4 58 9 231 12 385 3 154 8 344 11 423 l6 142 -48 -1 c-27
-1 -96 -7 -154 -15z"/>
</g>
</svg>
