<?xml version="1.0" encoding="utf-8"?>
<!-- Generator: Adobe Illustrator 19.2.0, SVG Export Plug-In . SVG Version: 6.00 Build 0)  -->
<svg version="1.1" id="kite" xmlns="http://www.w3.org/2000/svg" xmlns:xlink="http://www.w3.org/1999/xlink" x="0px" y="0px"
	 viewBox="0 0 49.1566 50.9887" enable-background="new 0 0 49.1566 50.9887" xml:space="preserve">
<g>
	<path fill="#535353" d="M11.9567,39.5039V16.0166c0-0.5522-0.4478-1-1-1H1.0001c-0.3354,0-0.6484,0.168-0.834,0.4478
		c-0.1851,0.2798-0.2178,0.6338-0.0869,0.9424l9.9565,23.4873c0.1592,0.3755,0.5259,0.6099,0.9204,0.6099
		c0.0659,0,0.1328-0.0063,0.1997-0.02C11.6217,40.3891,11.9567,39.9795,11.9567,39.5039z"/>
	<polygon fill="#D8D8D8" points="9.9567,34.5825 2.5104,17.0166 9.9567,17.0166 	"/>
	<path fill="#535353" d="M13.8009,40.4839c0.0669,0.0137,0.1338,0.02,0.1997,0.02c0.3945,0,0.7612-0.2349,0.9204-0.6099
		l9.9565-23.4873c0.1309-0.3086,0.0981-0.6626-0.0869-0.9424c-0.1855-0.2798-0.4985-0.4478-0.834-0.4478h-9.9565
		c-0.5522,0-1,0.4478-1,1v23.4873C13.0001,39.9795,13.3351,40.3891,13.8009,40.4839z"/>
	<polygon fill="#D8D8D8" points="15.0001,17.0166 22.4464,17.0166 15.0001,34.5825 	"/>
	<path fill="#535353" d="M14.0001,13.9995h9.9565c0.3877,0,0.7402-0.2241,0.9053-0.5747c0.1646-0.3511,0.1118-0.7656-0.1357-1.064
		l-9.9565-12c-0.2695-0.3242-0.7139-0.4438-1.1089-0.3018c-0.3965,0.1431-0.6606,0.519-0.6606,0.9404v12
		C13.0001,13.5517,13.4479,13.9995,14.0001,13.9995z"/>
	<polygon fill="#D8D8D8" points="15.0001,3.771 21.8278,11.9995 15.0001,11.9995 	"/>
	<path fill="#535353" d="M1.0001,13.9995h9.9565c0.5522,0,1-0.4478,1-1v-12c0-0.4214-0.2642-0.7974-0.6606-0.9404
		c-0.394-0.1421-0.8394-0.0225-1.1089,0.3018l-9.9565,12c-0.2476,0.2983-0.3003,0.7129-0.1357,1.064
		C0.2599,13.7754,0.6125,13.9995,1.0001,13.9995z"/>
	<polygon fill="#D8D8D8" points="9.9567,3.771 9.9567,11.9995 3.1291,11.9995 	"/>
	<path fill="#535353" d="M48.0094,14.7241c-8.3521,1.2397-12.2559,2.6289-13.9233,4.9551c-1.4409,2.0103-1.0117,4.374-0.4683,7.3667
		c0.6416,3.5347,1.4399,7.9331-0.2134,14.0288c-1.2837,4.7329-3.7622,7.4502-7.168,7.8579
		c-4.8354,0.5771-10.478-3.4175-12.7314-7.5112c-0.2656-0.4834-0.873-0.6602-1.3584-0.394
		c-0.4834,0.2661-0.6602,0.8745-0.3936,1.3584c2.3823,4.3286,8.0625,8.603,13.5269,8.603c0.3994,0,0.7983-0.0229,1.1943-0.0703
		c2.9858-0.3574,6.9468-2.2646,8.8608-9.3203c1.7715-6.5317,0.8921-11.374,0.2505-14.9092c-0.4771-2.626-0.8213-4.5229,0.126-5.8447
		c1.2783-1.7827,5.0439-3.0215,12.5918-4.1416c0.5464-0.0811,0.9233-0.5898,0.8423-1.1362
		C49.0646,15.0205,48.5578,14.644,48.0094,14.7241z"/>
</g>
</svg>
