<?xml version="1.0" encoding="utf-8"?>
<!-- Generator: Adobe Illustrator 19.2.0, SVG Export Plug-In . SVG Version: 6.00 Build 0)  -->
<svg version="1.1" id="roadblock" xmlns="http://www.w3.org/2000/svg" xmlns:xlink="http://www.w3.org/1999/xlink" x="0px" y="0px"
	 viewBox="0 0 58 40.0249" enable-background="new 0 0 58 40.0249" xml:space="preserve">
<path fill="#535353" d="M57.9893,0.947c-0.0051-0.0953-0.0239-0.1885-0.0565-0.2802c-0.0096-0.0267-0.0154-0.0538-0.0271-0.0795
	C57.9,0.5748,57.8988,0.5612,57.8926,0.5488c-0.0461-0.0913-0.1071-0.1714-0.1763-0.2427
	c-0.0151-0.0155-0.0334-0.0259-0.0494-0.0405C57.5966,0.202,57.519,0.15,57.434,0.1086c-0.0294-0.0144-0.0574-0.0273-0.0883-0.0388
	C57.2359,0.0288,57.1212,0,57,0h-8h-9h-8h-9h-8H1C0.4473,0,0,0.4478,0,1v19c0,0.0188,0.0096,0.0344,0.0107,0.0529
	c0.0051,0.0956,0.0239,0.1888,0.0566,0.2806c0.0095,0.0266,0.0153,0.0535,0.0269,0.079c0.0057,0.0126,0.007,0.0262,0.0132,0.0387
	c0.0461,0.0913,0.1072,0.1714,0.1763,0.2427c0.015,0.0154,0.0333,0.0259,0.0494,0.0405c0.0703,0.0636,0.1479,0.1157,0.233,0.157
	c0.0292,0.0144,0.0573,0.0273,0.0881,0.0388C0.764,20.9712,0.8788,21,1,21h8h1v17H8c-0.5527,0-1,0.4478-1,1s0.4473,1,1,1h2.8682
	c0.045,0.0059,0.085,0.0249,0.1318,0.0249s0.0869-0.019,0.1319-0.0249H14c0.5527,0,1-0.4478,1-1s-0.4473-1-1-1h-2V21h6h8h9h8h3v17
	h-2c-0.5527,0-1,0.4478-1,1s0.4473,1,1,1h2.8682c0.045,0.0059,0.085,0.0249,0.1318,0.0249s0.0869-0.019,0.1319-0.0249H50
	c0.5527,0,1-0.4478,1-1s-0.4473-1-1-1h-2V21h9c0.5527,0,1-0.4478,1-1V1C58,0.9812,57.9904,0.9656,57.9893,0.947z"/>
<polygon fill="#FFFFFF" points="27.9787,19 40.505,2 47.0213,2 34.495,19 "/>
<polygon fill="#FFFFFF" points="10.9787,19 23.505,2 30.0213,2 17.495,19 "/>
<polygon fill="#FFFFFF" points="13.0213,2 2,16.9575 2,2 "/>
<polygon fill="#D8D8D8" points="2.9785,19 15.5049,2 21.0215,2 8.4951,19 "/>
<polygon fill="#D8D8D8" points="19.9785,19 32.5049,2 38.0215,2 25.4951,19 "/>
<polygon fill="#D8D8D8" points="36.9785,19 49.5049,2 55.0215,2 42.4951,19 "/>
<polygon fill="#FFFFFF" points="44.9787,19 56,4.0425 56,19 "/>
</svg>
