<?xml version="1.0" encoding="utf-8"?>
<!-- Generator: Adobe Illustrator 19.2.0, SVG Export Plug-In . SVG Version: 6.00 Build 0)  -->
<svg version="1.1" id="saviour" xmlns="http://www.w3.org/2000/svg" xmlns:xlink="http://www.w3.org/1999/xlink" x="0px" y="0px"
	 viewBox="0 0 56.3062 56.9599" enable-background="new 0 0 56.3062 56.9599" xml:space="preserve">
<g>
	<path fill="#535353" d="M48.8334,8.636c-0.0121-0.0144-0.0176-0.0323-0.0306-0.0461c-0.0948-0.1001-0.1986-0.191-0.2949-0.2896
		c-0.2811-0.2886-0.569-0.5715-0.8643-0.8489c-0.1353-0.1269-0.2687-0.2554-0.4066-0.3796
		c-0.4186-0.3775-0.8491-0.7448-1.2946-1.0989c-0.0952-0.0756-0.194-0.1465-0.2902-0.2208
		c-0.3804-0.2943-0.7705-0.5792-1.1697-0.8557c-0.134-0.0927-0.2676-0.1853-0.4033-0.2757c-0.4921-0.3279-0.9927-0.6472-1.512-0.947
		c-0.5206-0.3005-1.0488-0.5751-1.5802-0.8379c-0.1427-0.0706-0.2863-0.1384-0.4301-0.2065
		c-0.4434-0.2097-0.8898-0.4072-1.3395-0.5912c-0.109-0.0447-0.2163-0.0933-0.3259-0.1366
		c-0.5302-0.2092-1.0643-0.3987-1.6014-0.5728c-0.1769-0.0575-0.3555-0.1089-0.5336-0.1628
		c-0.3856-0.1163-0.7722-0.2237-1.1603-0.3223c-0.1355-0.0346-0.268-0.0797-0.4041-0.1122
		c-0.019-0.0046-0.0378-0.0002-0.0568-0.0037C26.1768-1.3825,16.6675,1.1656,9.9641,7.4726C9.9494,7.485,9.9311,7.4906,9.917,7.5039
		C9.8143,7.6011,9.7211,7.7076,9.6199,7.8064C9.336,8.083,9.0577,8.3665,8.7847,8.657C8.6547,8.7955,8.5231,8.9321,8.396,9.0733
		c-0.3758,0.4169-0.7414,0.8456-1.094,1.2891c-0.0777,0.0978-0.1506,0.1994-0.227,0.2983
		c-0.2925,0.3784-0.5758,0.7662-0.8506,1.1631c-0.093,0.1343-0.1859,0.2684-0.2766,0.4045c-0.3279,0.492-0.647,0.9927-0.9468,1.5118
		c-0.2985,0.517-0.5715,1.0416-0.8327,1.5693c-0.0754,0.1523-0.1478,0.3057-0.2203,0.4592c-0.201,0.4258-0.3904,0.8544-0.5677,1.286
		c-0.0517,0.1255-0.1075,0.2491-0.1573,0.3754c-0.2051,0.5209-0.3912,1.0456-0.5625,1.5731
		c-0.062,0.1902-0.1173,0.3821-0.175,0.5737c-0.1108,0.369-0.2136,0.7391-0.3083,1.1105c-0.0366,0.1431-0.0842,0.2832-0.1185,0.4269
		c-0.0048,0.0199-0.0002,0.0395-0.0037,0.0594c-2.1089,8.9575,0.439,18.4657,6.7444,25.1682
		c0.0126,0.015,0.0182,0.0334,0.0317,0.0477c0.0977,0.1031,0.2046,0.1968,0.3038,0.2984c0.2761,0.2832,0.5588,0.5609,0.8486,0.8334
		c0.139,0.1304,0.2761,0.2625,0.4179,0.39c0.4167,0.3757,0.8453,0.7413,1.2888,1.0938c0.097,0.077,0.1978,0.1493,0.2958,0.225
		c0.3791,0.2931,0.7678,0.577,1.1655,0.8524c0.1342,0.0928,0.2681,0.1857,0.404,0.2762c0.492,0.3279,0.9927,0.6471,1.5118,0.9468
		c0.5605,0.3235,1.1283,0.6229,1.7012,0.9026c0.2079,0.1016,0.4214,0.1884,0.6314,0.2846c0.3682,0.1684,0.7357,0.3384,1.108,0.4892
		c0.2665,0.1082,0.5379,0.2015,0.8074,0.3011c0.3191,0.1177,0.6375,0.2377,0.9589,0.3429c0.3068,0.1006,0.6172,0.188,0.9273,0.2777
		c0.2849,0.0821,0.5694,0.165,0.8557,0.2375c0.1288,0.0328,0.2548,0.0757,0.384,0.1066c0.0559,0.0132,0.111,0.0159,0.1663,0.0195
		c2.0402,0.4718,4.1068,0.7168,6.1638,0.7168c6.9296,0,13.72-2.6296,18.8672-7.4592c0.0247-0.0193,0.0549-0.0276,0.0781-0.0496
		c0.0771-0.0731,0.1469-0.1533,0.2232-0.2272c0.217-0.2098,0.4255-0.43,0.6362-0.6478c0.2242-0.2322,0.4514-0.4609,0.6672-0.7009
		c0.2373-0.2633,0.4629-0.54,0.691-0.814c0.1771-0.2131,0.3605-0.4205,0.5312-0.639c0.2646-0.3383,0.5143-0.6921,0.7647-1.0454
		c0.1212-0.1711,0.2507-0.3355,0.3681-0.5095c0.361-0.5347,0.707-1.0844,1.0344-1.6516c0.3003-0.5201,0.5748-1.0479,0.8373-1.5789
		c0.0717-0.1448,0.1405-0.2906,0.2095-0.4366c0.2081-0.4402,0.404-0.8832,0.5867-1.3295c0.046-0.1122,0.0961-0.2228,0.1406-0.3356
		c0.2079-0.5274,0.3964-1.0588,0.5696-1.593c0.0591-0.1819,0.1121-0.3654,0.1674-0.5484c0.114-0.3784,0.2193-0.7578,0.3162-1.1386
		c0.0355-0.1389,0.0818-0.2749,0.1151-0.4144c0.0046-0.0193,0.0002-0.0384,0.0037-0.0578
		C57.6884,24.8487,55.1402,15.3392,48.8334,8.636z M42.2935,28.2173c-0.0237,0.4454-0.0706,0.8857-0.1368,1.3213
		c-0.0233,0.1508-0.0536,0.3004-0.082,0.4503c-0.0623,0.3322-0.1373,0.6611-0.2245,0.9867
		c-0.0476,0.1767-0.0963,0.3531-0.1512,0.5281c-0.0981,0.3135-0.2124,0.6223-0.334,0.929c-0.0623,0.1571-0.1183,0.316-0.1866,0.4713
		c-0.1998,0.4529-0.4186,0.9001-0.6705,1.3363c-0.2532,0.4389-0.5357,0.8596-0.8361,1.2664
		c-0.0735,0.0999-0.1542,0.1929-0.2302,0.2904c-0.2411,0.3085-0.4922,0.609-0.7589,0.8953
		c-0.0876,0.0942-0.1778,0.1856-0.2679,0.2771c-0.2776,0.2816-0.5673,0.5505-0.8682,0.8065
		c-0.0877,0.0745-0.1736,0.1512-0.2632,0.2234c-0.3557,0.2871-0.7253,0.5563-1.1085,0.8051
		c-1.1757,0.7629-2.4713,1.3526-3.8644,1.726c-1.3993,0.3748-2.8228,0.5108-4.229,0.4353c-0.4415-0.0237-0.8779-0.07-1.3098-0.1356
		c-0.1541-0.0237-0.3069-0.0547-0.4601-0.0839c-0.3276-0.0616-0.6519-0.1356-0.9731-0.2215
		c-0.181-0.0486-0.3616-0.0985-0.5408-0.1548c-0.3074-0.0964-0.6104-0.2087-0.9112-0.3277
		c-0.1624-0.0642-0.3265-0.1221-0.487-0.1928c-0.4515-0.1993-0.8974-0.4175-1.3322-0.6687
		c-0.4381-0.2526-0.8579-0.5346-1.264-0.8342c-0.1039-0.0764-0.2006-0.1603-0.3019-0.2393
		c-0.3032-0.2374-0.5987-0.4841-0.8803-0.746c-0.0992-0.092-0.1951-0.1868-0.2913-0.2817
		c-0.2751-0.2716-0.5379-0.5548-0.7884-0.8487c-0.08-0.094-0.1622-0.1862-0.2395-0.2822c-0.2776-0.3444-0.5374-0.7026-0.7792-1.0727
		c-0.7721-1.1833-1.369-2.4881-1.7454-3.8925c-0.377-1.4061-0.5121-2.8364-0.4342-4.249c0.0239-0.4331,0.0688-0.8615,0.1331-1.2853
		c0.0242-0.1583,0.0561-0.3154,0.0861-0.4728c0.061-0.3232,0.134-0.6434,0.2186-0.9604c0.0493-0.1837,0.0999-0.3671,0.1571-0.549
		c0.0956-0.3046,0.2069-0.6047,0.3247-0.9028c0.0649-0.1646,0.1237-0.3307,0.1953-0.4932c0.1992-0.451,0.4171-0.8964,0.668-1.3307
		c0.2936-0.5087,0.6206-0.986,0.9678-1.4412c0.1252-0.1639,0.2671-0.3135,0.3995-0.4714c0.2374-0.283,0.4761-0.5646,0.733-0.8242
		c0.1552-0.1573,0.3225-0.3013,0.4851-0.4507c0.2645-0.242,0.5317-0.4801,0.8125-0.6985c0.16-0.1249,0.3268-0.2401,0.4922-0.3575
		c2.2925-1.621,5.0312-2.5036,7.8237-2.5036c0.2462,0,0.4927,0.0099,0.7393,0.0235c0.4169,0.0233,0.8292,0.0675,1.2375,0.1281
		c0.1342,0.0199,0.2682,0.041,0.4022,0.065c0.408,0.0733,0.8114,0.1646,1.2096,0.2753c0.1231,0.0341,0.2455,0.0724,0.368,0.1102
		c0.4161,0.129,0.8281,0.2728,1.2322,0.4431c0.0765,0.0321,0.1519,0.0691,0.228,0.1027c0.444,0.197,0.8829,0.4106,1.3108,0.6577
		c0.4388,0.2531,0.8594,0.5355,1.2661,0.8358c0.1003,0.0737,0.1936,0.1548,0.2915,0.2311c0.3083,0.241,0.6084,0.4918,0.8944,0.7581
		c0.0943,0.0876,0.1856,0.1779,0.2772,0.268c0.2814,0.2774,0.55,0.5668,0.8058,0.8675c0.0748,0.0881,0.1519,0.1744,0.2244,0.2643
		c0.2869,0.3555,0.556,0.725,0.8046,1.1079c0.7629,1.1758,1.3527,2.4714,1.726,3.8645
		C42.2314,25.393,42.3679,26.8138,42.2935,28.2173z"/>
	<path fill="#FFFFFF" d="M53.88,32.1688l-9.5728-4.6589c-0.0004-1.3448-0.1608-2.6976-0.5181-4.0314
		c-0.3575-1.3344-0.8951-2.5869-1.5677-3.7522l5.9609-8.821C53.1785,16.7506,55.2839,24.6084,53.88,32.1688z"/>
	<path fill="#D8D8D8" d="M53.3926,34.3017c-0.1227,0.4413-0.2574,0.8791-0.404,1.3134c-0.0554,0.1645-0.1185,0.3275-0.1774,0.4914
		c-0.1127,0.3125-0.2291,0.6237-0.3541,0.932c-0.0679,0.1677-0.1385,0.3348-0.2103,0.5017
		c-0.1369,0.3182-0.2811,0.6335-0.4312,0.9465c-0.0676,0.1411-0.1326,0.2829-0.2031,0.4232
		c-0.2252,0.4487-0.4601,0.8935-0.7123,1.3303c-0.2517,0.436-0.519,0.8611-0.7945,1.28c-0.0758,0.1154-0.1548,0.228-0.2322,0.3419
		c-0.2178,0.3197-0.4417,0.6346-0.6732,0.9435c-0.0747,0.0999-0.149,0.2001-0.2251,0.2987
		c-0.6358,0.8229-1.3174,1.6075-2.0478,2.345c-0.0047,0.0048-0.0096,0.0093-0.0143,0.014l-8.5374-5.769
		c0.0267-0.0209,0.0505-0.0455,0.077-0.0666c0.7444-0.5912,1.4376-1.2472,2.0644-1.9716c0.0132-0.0152,0.0244-0.032,0.0375-0.0472
		c0.3056-0.356,0.5994-0.7237,0.8738-1.1093c0.2902-0.4062,0.5616-0.8262,0.8115-1.2594c0.2495-0.4322,0.4773-0.8762,0.6835-1.3294
		c0.6087-1.3312,1.0129-2.7269,1.2241-4.1504c0.0047-0.0317,0.0136-0.0627,0.0181-0.0944l9.2593,4.5057
		C53.4136,34.2149,53.4046,34.2585,53.3926,34.3017z"/>
	<path fill="#D8D8D8" d="M22.102,52.0953c-0.9951-0.2723-1.9721-0.6089-2.9287-1.0013c-0.1198-0.0492-0.2388-0.1009-0.358-0.152
		c-0.3512-0.1503-0.699-0.3094-1.0439-0.4757c-0.1257-0.0606-0.252-0.1195-0.3769-0.1823
		c-0.4476-0.2249-0.8914-0.4592-1.3271-0.7108c-0.4343-0.2505-0.8575-0.5167-1.2747-0.7909
		c-0.1214-0.0797-0.2399-0.1628-0.3597-0.2444c-0.3104-0.2117-0.6163-0.4291-0.9164-0.6537
		c-0.1085-0.0811-0.2174-0.1617-0.3245-0.2444c-0.8149-0.6302-1.5922-1.3057-2.3232-2.0286
		c-0.0085-0.0084-0.0167-0.0172-0.0251-0.0256l5.7686-8.5367c0.0254,0.0323,0.0551,0.0612,0.0807,0.0933
		c0.8906,1.1181,1.9316,2.1177,3.1164,2.9606c0.4057,0.2898,0.8253,0.5607,1.2579,0.8104c0.3936,0.2273,0.7965,0.4293,1.2034,0.6199
		c0.0827,0.0386,0.1655,0.0759,0.2489,0.113c0.8583,0.3838,1.7416,0.6867,2.6425,0.9067c0.0202,0.0049,0.0404,0.0093,0.0607,0.0142
		c0.4686,0.1125,0.9408,0.2063,1.4169,0.274l-4.5073,9.2624C22.1224,52.1004,22.1121,52.0981,22.102,52.0953z"/>
	<path fill="#D8D8D8" d="M13.4886,25.2048c-0.0055,0.0365-0.0157,0.0721-0.0209,0.1086l-9.2642-4.5081
		c0.003-0.011,0.0056-0.0222,0.0085-0.0331c0.2719-0.9931,0.6078-1.9681,0.9993-2.9229c0.0502-0.1222,0.1029-0.2436,0.155-0.3652
		c0.1493-0.3486,0.3072-0.6938,0.4722-1.0361c0.0615-0.1276,0.1212-0.2557,0.185-0.3824c0.2246-0.447,0.4586-0.8901,0.7098-1.3253
		c0.2885-0.4996,0.5923-0.9849,0.9089-1.4573c0.0789-0.1179,0.1659-0.2294,0.2466-0.3458c0.2447-0.3523,0.4913-0.7028,0.751-1.0392
		c0.0933-0.121,0.194-0.2356,0.2894-0.3549c0.2602-0.3248,0.5219-0.6478,0.7956-0.9571c0.0911-0.1031,0.1882-0.2006,0.2809-0.3022
		c0.237-0.2592,0.4782-0.5132,0.7245-0.7609l8.5275,5.7624c-0.1926,0.1512-0.3702,0.3204-0.5555,0.4807
		c-0.1609,0.1385-0.3257,0.2709-0.4814,0.4166c-0.1856,0.1743-0.3578,0.3618-0.5348,0.5451
		c-0.1757,0.1816-0.356,0.357-0.5236,0.5484c-0.1739,0.1987-0.3314,0.4106-0.4951,0.618c-0.1485,0.1882-0.3041,0.3682-0.4448,0.5647
		c-0.2964,0.4133-0.5743,0.8403-0.829,1.2816c-0.2497,0.4323-0.4777,0.8764-0.684,1.33
		C14.103,22.3963,13.7003,23.7868,13.4886,25.2048z"/>
	<path fill="#D8D8D8" d="M30.9932,12.1406l4.5049-9.2577c0.3754,0.1018,0.749,0.2161,1.1215,0.3359
		c0.1146,0.037,0.2313,0.0676,0.3454,0.1062c0.3715,0.1254,0.7394,0.2695,1.1073,0.413c0.1563,0.0611,0.3152,0.1144,0.4704,0.1787
		c0.3546,0.1465,0.7048,0.3119,1.0552,0.4757c0.1589,0.0743,0.3211,0.1404,0.4786,0.218c0.502,0.2474,0.9995,0.512,1.491,0.7958
		c0.4353,0.2513,0.8597,0.5182,1.278,0.7932c0.1348,0.0887,0.2654,0.1813,0.3979,0.2721c0.2822,0.1933,0.5608,0.3913,0.8345,0.5953
		c0.1485,0.1108,0.2961,0.2224,0.4416,0.336c0.2593,0.2022,0.5129,0.4111,0.764,0.623c0.1349,0.114,0.2728,0.2252,0.4048,0.3416
		c0.3444,0.3033,0.6807,0.6155,1.0081,0.9369c0.0311,0.0306,0.06,0.063,0.0909,0.0938l-5.7657,8.5324
		c-0.0209-0.0267-0.0455-0.0505-0.0666-0.077c-0.5913-0.7444-1.2473-1.4377-1.9719-2.0646
		c-0.0122-0.0106-0.0257-0.0196-0.038-0.0301c-0.3586-0.3083-0.7296-0.6043-1.1183-0.881
		c-0.4062-0.2902-0.8262-0.5616-1.2594-0.8115c-0.4424-0.2554-0.8976-0.4866-1.3621-0.6966
		c-0.1999-0.0905-0.4042-0.1607-0.6063-0.2421c-0.2672-0.1076-0.5319-0.2209-0.8044-0.3134
		c-0.2169-0.0736-0.4366-0.1284-0.6553-0.1919c-0.27-0.0787-0.5381-0.1617-0.8118-0.2257c-0.1851-0.0429-0.3713-0.071-0.5572-0.1069
		C31.5114,12.2391,31.2543,12.1778,30.9932,12.1406z"/>
	<path fill="#FFFFFF" d="M28.8604,1.9951c1.5444,0,3.0957,0.1467,4.6351,0.4325l-4.6627,9.5805
		c-2.7261,0.002-5.4102,0.7208-7.772,2.0821l-8.8307-5.9675C16.8853,4.1432,22.8177,1.9951,28.8604,1.9951z"/>
	<path fill="#FFFFFF" d="M3.7408,22.8044l9.5861,4.6654c0.0005,1.3447,0.1612,2.6974,0.5188,4.0312
		c0.3574,1.3344,0.8948,2.5867,1.567,3.7518l-5.9692,8.8332c-2.452-2.858-4.2537-6.2512-5.257-9.9961
		C3.1826,30.3449,3.0463,26.5055,3.7408,22.8044z"/>
	<path fill="#FFFFFF" d="M24.1314,52.566l4.6572-9.569c0.0012,0,0.0023,0.0001,0.0034,0.0001
		c1.3457-0.001,2.7012-0.1777,4.0361-0.5352c1.3344-0.3575,2.5868-0.8952,3.7521-1.5677l8.8334,5.9694
		c-2.8582,2.4523-6.2515,4.2542-9.9967,5.2576C31.6722,53.1244,27.8326,53.2604,24.1314,52.566z"/>
	<path fill="#535353" d="M35.3818,22.2178c-0.5586-0.2881-5.5361-2.7627-8.3408-0.875c-1.3154,0.8857-1.8779,2.4844-1.6719,4.7529
		c0.6016,6.6172-4.2598,7.5898-4.4619,7.627c-0.5439,0.0938-0.9092,0.6104-0.8154,1.1553c0.084,0.4863,0.5059,0.8301,0.9844,0.8301
		c0.0557,0,0.1133-0.0049,0.1709-0.0146c0.0684-0.0117,6.8857-1.2842,6.1143-9.7793c-0.1348-1.4844,0.1328-2.4648,0.7959-2.9111
		c1.542-1.043,5.1621,0.4043,6.3076,0.9922c0.4893,0.252,1.0938,0.0596,1.3467-0.4307
		C36.0645,23.0732,35.8721,22.4707,35.3818,22.2178z"/>
	<path fill="#535353" d="M8.1279,48.1738C5.3164,48.2685,0,50.0195,0,55.9599c0,0.5527,0.4473,1,1,1s1-0.4473,1-1
		c0-5.4775,5.9346-5.7773,6.1982-5.7881c0.5508-0.0195,0.9824-0.4814,0.9629-1.0332C9.1436,48.5859,8.6611,48.1113,8.1279,48.1738z"
		/>
</g>
</svg>
