<?xml version="1.0" encoding="utf-8"?>
<!-- Generator: Adobe Illustrator 19.2.0, SVG Export Plug-In . SVG Version: 6.00 Build 0)  -->
<svg version="1.1" id="sound" xmlns="http://www.w3.org/2000/svg" xmlns:xlink="http://www.w3.org/1999/xlink" x="0px" y="0px"
	 viewBox="0 0 53 36" enable-background="new 0 0 53 36" xml:space="preserve">
<path fill="#535353" d="M52,17h-2v-6.4961C50,9.123,48.8789,8,47.5,8S45,9.123,45,10.5039V17h-2V6.4912C43,5.1172,41.8789,4,40.5,4
	S38,5.1172,38,6.4912V17h-2V2.5049C36,1.124,34.8789,0,33.5,0S31,1.124,31,2.5049V17h-2v-1.4951C29,14.124,27.8789,13,26.5,13
	S24,14.124,24,15.5049V17h-2V9.5029C22,8.123,20.8789,7,19.5,7S17,8.123,17,9.5029V17h-2V7.501C15,6.1221,13.8789,5,12.5,5
	S10,6.1221,10,7.501V17H8v-3.5039C8,12.1201,6.8789,11,5.5,11S3,12.1201,3,13.4961V17H1c-0.5527,0-1,0.4473-1,1s0.4473,1,1,1h2
	v3.5049C3,23.8809,4.1211,25,5.5,25S8,23.8809,8,22.5049V19h2v9.499C10,29.8779,11.1211,31,12.5,31s2.5-1.1221,2.5-2.501V19h2
	v7.4971C17,27.877,18.1211,29,19.5,29s2.5-1.123,2.5-2.5029V19h2v1.4951C24,21.876,25.1211,23,26.5,23s2.5-1.124,2.5-2.5049V19h2
	v14.4951C31,34.876,32.1211,36,33.5,36s2.5-1.124,2.5-2.5049V19h2v10.5088C38,30.8828,39.1211,32,40.5,32s2.5-1.1172,2.5-2.4912V19
	h2v6.4961C45,26.877,46.1211,28,47.5,28s2.5-1.123,2.5-2.5039V19h2c0.5527,0,1-0.4473,1-1S52.5527,17,52,17z"/>
<path fill="#D8D8D8" d="M6,22.5049C6,22.7822,5.7803,23,5.5,23C5.2285,23,5,22.7734,5,22.5049v-9.0088C5,13.2178,5.2197,13,5.5,13
	C5.7715,13,6,13.2275,6,13.4961V22.5049z"/>
<path fill="#D8D8D8" d="M13,28.499C13,28.7803,12.7803,29,12.5,29S12,28.7803,12,28.499V7.501C12,7.2197,12.2197,7,12.5,7
	S13,7.2197,13,7.501V28.499z"/>
<path fill="#D8D8D8" d="M20,26.4971C20,26.7793,19.7803,27,19.5,27S19,26.7793,19,26.4971V9.5029C19,9.2207,19.2197,9,19.5,9
	S20,9.2207,20,9.5029V26.4971z"/>
<path fill="#D8D8D8" d="M27,20.4951C27,20.7783,26.7803,21,26.5,21S26,20.7783,26,20.4951v-4.9902C26,15.2217,26.2197,15,26.5,15
	s0.5,0.2217,0.5,0.5049V20.4951z"/>
<path fill="#D8D8D8" d="M34,33.4951C34,33.7783,33.7803,34,33.5,34c-0.2754,0-0.5-0.2266-0.5-0.5049V2.5049
	C33,2.2217,33.2197,2,33.5,2C33.7715,2,34,2.2314,34,2.5049V33.4951z"/>
<path fill="#D8D8D8" d="M41,29.5088C41,29.7842,40.7803,30,40.5,30c-0.2754,0-0.5-0.2207-0.5-0.4912V6.4912
	C40,6.2158,40.2197,6,40.5,6C40.7754,6,41,6.2207,41,6.4912V29.5088z"/>
<path fill="#D8D8D8" d="M48,25.4961C48,25.7783,47.7803,26,47.5,26S47,25.7783,47,25.4961V10.5039C47,10.2217,47.2197,10,47.5,10
	s0.5,0.2217,0.5,0.5039V25.4961z"/>
</svg>
