<?xml version="1.0" encoding="utf-8"?>
<!-- Generator: Adobe Illustrator 19.2.0, SVG Export Plug-In . SVG Version: 6.00 Build 0)  -->
<svg version="1.1" id="whistle" xmlns="http://www.w3.org/2000/svg" xmlns:xlink="http://www.w3.org/1999/xlink" x="0px" y="0px"
	 viewBox="0 0 55 38.5225" enable-background="new 0 0 55 38.5225" xml:space="preserve">
<g>
	<path fill="#535353" d="M42,3.5225H15c-0.5522,0-1,0.4478-1,1v9v2v9c0,0.5527,0.4478,1,1,1h14c0,7.168,5.8315,13,13,13
		c6.804,0,12.3936-5.2568,12.9453-11.9204C54.9706,26.5142,55,26.4272,55,26.3311v-9.8086C55,9.354,49.1685,3.5225,42,3.5225z"/>
	<rect x="30" y="5.5225" fill="#D8D8D8" width="2" height="7"/>
	<rect x="26" y="5.5225" fill="#D8D8D8" width="2" height="7"/>
	<rect x="16" y="5.5225" fill="#D8D8D8" width="8" height="7"/>
	<path fill="#D8D8D8" d="M42,36.5225c-6.0654,0-11-4.9346-11-11c0-0.3096,0.0127-0.6143,0.0376-0.917
		c0.0229-0.2793-0.0713-0.5547-0.2607-0.7607c-0.1895-0.2051-0.4561-0.3223-0.7358-0.3223H16v-8v-1h26c6.0654,0,11,4.9346,11,11
		S48.0654,36.5225,42,36.5225z"/>
	<path fill="#D8D8D8" d="M42,12.5225h-8v-7h8c6.0654,0,11,4.9346,11,11v2.1038C50.6975,14.9669,46.6337,12.5225,42,12.5225z"/>
	<circle fill="#535353" cx="42" cy="27.5225" r="6"/>
	<circle fill="#D8D8D8" cx="42" cy="27.5225" r="4"/>
	<path fill="#535353" d="M9,11.5225H1c-0.5522,0-1,0.4478-1,1s0.4478,1,1,1h8c0.5522,0,1-0.4478,1-1S9.5522,11.5225,9,11.5225z"/>
	<path fill="#535353" d="M4.1846,0.293c-0.3906-0.3906-1.0234-0.3906-1.4141,0s-0.3906,1.0234,0,1.4141L8.293,7.2295
		C8.4883,7.4248,8.7441,7.5225,9,7.5225s0.5117-0.0977,0.707-0.293c0.3906-0.3906,0.3906-1.0234,0-1.4141L4.1846,0.293z"/>
	<path fill="#535353" d="M8.293,17.8154l-5.5225,5.5225c-0.3906,0.3906-0.3906,1.0234,0,1.4141
		c0.1953,0.1953,0.4512,0.293,0.707,0.293s0.5117-0.0977,0.707-0.293l5.5225-5.5225c0.3906-0.3906,0.3906-1.0234,0-1.4141
		S8.6836,17.4248,8.293,17.8154z"/>
</g>
</svg>
